<svg xmlns="http://www.w3.org/2000/svg" viewBox="0 0 355.4 68.98"><defs><style>.cls-1{font-size:25px;fill:#fff;font-family:LeagueSpartan-Bold, League Spartan;font-weight:700;}.cls-2{letter-spacing:-0.03em;}.cls-3{letter-spacing:0em;}.cls-4{fill:#00c2b4;}.cls-5{fill:#9dd288;}.cls-6{fill:#ffe153;}.cls-7{fill:#ffa259;}</style></defs><title>Recurso 5</title><g id="Capa_2" data-name="Capa 2"><g id="OBJECTS"><text class="cls-1" transform="translate(178.1 49.2)">MAG<tspan class="cls-2" x="63.97" y="0">I</tspan><tspan class="cls-3" x="70.88" y="0">C BOOK</tspan></text><path class="cls-4" d="M89.11,68.67c0,.1-.1.21-.14.31,31.86-7.83,67.57-3.25,82.51-.67L145.6,51.76C130.57,53.3,108.79,55.86,89.11,68.67Z"/><path class="cls-5" d="M133.48,35.27l-.57.23c-11.2,4.43-26.08,10.32-40,25.47q-.8,1.48-1.59,3.06c19.82-11.54,41-13.71,55.39-15.19,8.19-.83,14.89-1.52,16.85-3.54Z"/><path class="cls-6" d="M150.94,19.33l-20.61,0c-2.43,2.38-5.15,4.62-8.06,7C115.1,32.28,106.7,39.2,98.4,51.77c12-10.34,24-15.11,33.49-18.86C142,28.9,149,26.16,150.94,19.33Z"/><path class="cls-7" d="M87.91,58.49v6.19c11-22.65,22.88-32.46,32.59-40.45,8.62-7.1,15-12.35,17.52-23.78L103.3,13.23a50.46,50.46,0,0,1-8.46,21.25C91.12,40.29,87.91,45.31,87.91,58.49Z"/><path class="cls-4" d="M82.37,68.22l.15.31C50.65,60.69,14.94,65.28,0,67.86L25.88,51.3C40.91,52.85,62.69,55.41,82.37,68.22Z"/><path class="cls-5" d="M38,34.82l.57.22c11.2,4.44,26.08,10.33,40,25.47.53,1,1.06,2,1.59,3.07C60.32,52,39.17,49.87,24.75,48.39c-8.19-.83-14.89-1.52-16.85-3.54Z"/><path class="cls-6" d="M20.54,18.88l20.61,0c2.44,2.38,5.15,4.61,8.06,7,7.17,5.91,15.57,12.83,23.87,25.4-12-10.34-24-15.11-33.49-18.86C29.45,28.45,22.52,25.7,20.54,18.88Z"/><path class="cls-7" d="M83.57,58v6.19C72.59,41.57,60.69,31.77,51,23.77,42.36,16.68,36,11.43,33.46,0L68.18,12.78A50.46,50.46,0,0,0,76.64,34C80.36,39.84,83.57,44.86,83.57,58Z"/></g></g></svg>