<svg xmlns="http://www.w3.org/2000/svg" xmlns:xlink="http://www.w3.org/1999/xlink" viewBox="0 0 461.81 163.59"><defs><style>.cls-1{isolation:isolate;}.cls-2{fill:url(#Nueva_muestra_de_degradado_1);}.cls-3{fill:url(#Nueva_muestra_de_degradado_1-2);}.cls-4{fill:url(#Degradado_sin_nombre_102);}.cls-5{fill:url(#Degradado_sin_nombre_102-2);}.cls-6{fill:url(#Degradado_sin_nombre_102-3);}.cls-7{fill:url(#Degradado_sin_nombre_102-4);}.cls-8{opacity:0.3;mix-blend-mode:soft-light;}.cls-9{font-size:33.25px;fill:#fff;font-family:LeagueSpartan-Bold, League Spartan;font-weight:700;}.cls-10{letter-spacing:-0.03em;}</style><linearGradient id="Nueva_muestra_de_degradado_1" x1="66.02" y1="-94.38" x2="66.02" y2="158.53" gradientUnits="userSpaceOnUse"><stop offset="0" stop-color="#faaf40"/><stop offset="1" stop-color="#ee4036"/></linearGradient><linearGradient id="Nueva_muestra_de_degradado_1-2" x1="167.93" y1="-94.38" x2="167.93" y2="158.53" xlink:href="#Nueva_muestra_de_degradado_1"/><linearGradient id="Degradado_sin_nombre_102" x1="56.05" y1="183.34" x2="56.05" y2="-7.95" gradientUnits="userSpaceOnUse"><stop offset="0" stop-color="#26cdba"/><stop offset="1" stop-color="#6336e6"/></linearGradient><linearGradient id="Degradado_sin_nombre_102-2" x1="77.7" y1="183.34" x2="77.7" y2="-7.95" xlink:href="#Degradado_sin_nombre_102"/><linearGradient id="Degradado_sin_nombre_102-3" x1="177.9" y1="183.34" x2="177.9" y2="-7.95" xlink:href="#Degradado_sin_nombre_102"/><linearGradient id="Degradado_sin_nombre_102-4" x1="156.25" y1="183.34" x2="156.25" y2="-7.95" xlink:href="#Degradado_sin_nombre_102"/></defs><title>Recurso 4</title><g class="cls-1"><g id="Capa_2" data-name="Capa 2"><g id="OBJECTS"><path class="cls-2" d="M112.1,147.61v4.6c-8.3-11.24-31.93-33.95-92.16-45.1v-95c6.69,1.25,13.14,2.7,19.24,4.32V98.2l1.59.37C72,106,89.76,119,99.15,128.63a70.34,70.34,0,0,1,5.2,5.9l.61.79c.33.43.63.85.92,1.25l.44.61c.9,1.28,1.69,2.47,2.35,3.57.29.48.56.94.8,1.37a38.83,38.83,0,0,1,2.4,4.89c0,.11.09.21.12.3Z"/><path class="cls-3" d="M121.84,147.61v4.6c8.3-11.24,31.93-33.95,92.17-45.1V12.16c-6.69,1.25-13.15,2.69-19.25,4.31V98.2l-1.59.37c-31.21,7.4-49,20.42-58.38,30.06a73.65,73.65,0,0,0-5.19,5.9l-.61.79c-.33.43-.63.85-.92,1.25l-.44.61c-.91,1.28-1.69,2.47-2.35,3.57-.29.48-.56.94-.81,1.37a42.74,42.74,0,0,0-2.4,4.89c0,.12-.08.22-.11.3A2.33,2.33,0,0,1,121.84,147.61Z"/><path class="cls-4" d="M112.1,160v3.55c-9.16-10.83-37.16-34.6-112.1-46v-95c5.42.83,10.72,1.76,15.82,2.75v85.27l1.69.31c41.41,7.43,65,20.51,77.47,30.18C107,150.35,111.28,158.34,112.1,160Z"/><path class="cls-5" d="M112.1,119.71v18.71a71.71,71.71,0,0,0-9.79-12.49c-9.63-9.93-27.63-23.3-59-31V0C73,7.48,90,20.06,99.15,29.43A70.32,70.32,0,0,1,106,37.49c-.08.22-.16.45-.25.67-3.45,9-9.33,14.91-17.48,17.64l-4.36,1.46,1.91,4.22,24.79,54.86.21.46Z"/><path class="cls-6" d="M121.84,160v3.55C131,152.76,159,129,234,117.55v-95c-5.43.83-10.73,1.76-15.82,2.75v85.27l-1.7.31c-41.4,7.43-65,20.52-77.46,30.18C127,150.36,122.67,158.34,121.84,160Z"/><path class="cls-7" d="M190.64,0V94.91c-31.37,7.72-49.38,21.09-59,31a71.71,71.71,0,0,0-9.79,12.49V119.71l1.52-3.37,24.79-54.86,1.91-4.22-4.36-1.46c-8.15-2.73-14-8.66-17.48-17.64-.09-.22-.17-.45-.25-.67a71.17,71.17,0,0,1,6.81-8.06C143.94,20.06,161,7.48,190.64,0Z"/><path class="cls-8" d="M190.64,0V94.91c-31.37,7.72-49.38,21.09-59,31a71.71,71.71,0,0,0-9.79,12.49S135.71,84.67,190.64,0Z"/><path class="cls-8" d="M112.1,138.42a71.71,71.71,0,0,0-9.79-12.49c-9.63-9.93-27.63-23.3-59-31,23.36-40,55.84-65.48,55.84-65.48L106,37.49c-.08.22-.16.45-.25.67-3.45,9-9.33,14.91-17.48,17.64l-4.36,1.46,1.91,4.22,24.79,54.86,1.52,3.37Z"/><text class="cls-9" transform="translate(259.68 93.08) scale(0.86 1)">MAG<tspan class="cls-10" x="85.08" y="0">I</tspan><tspan x="94.26" y="0">C BOOK</tspan></text></g></g></g></svg>